Coordinates
version=1
nRows=12
nColumns=24
inDegrees=yes

Units are S.I. units (second, meters, Newtons, ...)
Angles are in degrees.

endheader
time	pelvis_tilt	pelvis_list	pelvis_rotation	pelvis_tx	pelvis_ty	pelvis_tz	hip_flexion_r	hip_adduction_r	hip_rotation_r	knee_angle_r	ankle_angle_r	subtalar_angle_r	mtp_angle_r	hip_flexion_l	hip_adduction_l	hip_rotation_l	knee_angle_l	ankle_angle_l	subtalar_angle_l	mtp_angle_l	lumbar_extension	lumbar_bending	lumbar_rotation
      3.11000000	     93.68969822	     19.99261549	    -94.51763124	      0.35608424	      0.28936303	      1.01673065	      0.48590144	    -13.98457980	      3.90018274	    -53.42992458	    -32.44533005	     -1.74545602	    -25.17324631	     -9.55338459	    -15.41598424	    -10.79885589	    -59.47705614	    -24.71773631	     -0.14557499	     73.45799169	      0.00000000	      0.00000000	      0.00000000
      3.12000000	     93.69744938	     19.96590079	    -94.50560531	      0.35605911	      0.28938710	      1.01671930	      0.47179883	    -13.95665251	      3.72511819	    -53.27529718	    -32.59625258	     -1.74545602	    -25.17324631	     -9.58836525	    -15.41432427	    -10.79508726	    -59.47113675	    -24.73017138	     -0.14557499	     73.45799169	      0.00000000	      0.00000000	      0.00000000
      3.13000000	     93.70659425	     19.94029008	    -94.49087597	      0.35603799	      0.28941252	      1.01676106	      0.47923149	    -13.93116018	      3.53391152	    -53.13839590	    -32.79471977	     -1.74545602	    -25.17324631	     -9.62082422	    -15.41285894	    -10.78703291	    -59.46502859	    -24.74119320	     -0.14557499	     73.45799169	      0.00000000	      0.00000000	      0.00000000
      3.14000000	     93.71921459	     19.91902824	    -94.47385117	      0.35601844	      0.28942818	      1.01684583	      0.49738270	    -13.90350046	      3.33411406	    -53.01299155	    -32.99820638	     -1.74545602	    -25.17324631	     -9.64594032	    -15.41114647	    -10.77612763	    -59.46169158	    -24.75000320	     -0.14557499	     73.45799169	      0.00000000	      0.00000000	      0.00000000
      3.15000000	     93.73703406	     19.90783472	    -94.45815122	      0.35600019	      0.28943113	      1.01692526	      0.50991195	    -13.86721157	      3.13211392	    -52.89753702	    -33.16678772	     -1.74545602	    -25.17324631	     -9.65792286	    -15.40949310	    -10.76494908	    -59.46324594	    -24.75578222	     -0.14557499	     73.45799169	      0.00000000	      0.00000000	      0.00000000
      3.16000000	     93.76000390	     19.91069114	    -94.44730435	      0.35600526	      0.28941764	      1.01698801	      0.50441638	    -13.81747942	      2.93205357	    -52.79445206	    -33.27502386	     -1.74545602	    -25.17324631	     -9.65324268	    -15.40950565	    -10.75669369	    -59.47037603	    -24.75789614	     -0.14557499	     73.45799169	      0.00000000	      0.00000000	      0.00000000
      3.17000000	     93.78552940	     19.92781119	    -94.44215544	      0.35605168	      0.28939934	      1.01701758	      0.47957845	    -13.75376882	      2.73509019	    -52.70807283	    -33.31868793	     -1.74545602	    -25.17324631	     -9.63377977	    -15.41406992	    -10.75426718	    -59.48238369	    -24.75619490	     -0.14557499	     73.45799169	      0.00000000	      0.00000000	      0.00000000
      3.18000000	     93.80908165	     19.95528996	    -94.44047746	      0.35612392	      0.28940511	      1.01696703	      0.44660926	    -13.67985612	      2.53939145	    -52.64220307	    -33.31398472	     -1.74545602	    -25.17324631	     -9.60695101	    -15.42636085	    -10.75947797	    -59.49771835	    -24.75123195	     -0.14557499	     73.45799169	      0.00000000	      0.00000000	      0.00000000
      3.19000000	     93.82597323	     19.98455426	    -94.43790870	      0.35619839	      0.28944237	      1.01687359	      0.42550957	    -13.60167472	      2.34144665	    -52.59773531	    -33.28970824	     -1.74545602	    -25.17324631	     -9.58204857	    -15.44833909	    -10.77276480	    -59.51452644	    -24.74418706	     -0.14557499	     73.45799169	      0.00000000	      0.00000000	      0.00000000
      3.20000000	     93.83366619	     20.00706899	    -94.43118127	      0.35626750	      0.28948094	      1.01686285	      0.43320845	    -13.52388413	      2.13811974	    -52.57327929	    -33.27562767	     -1.74545602	    -25.17324631	     -9.56480621	    -15.47955396	    -10.79349218	    -59.53083905	    -24.73644511	     -0.14557499	     73.45799169	      0.00000000	      0.00000000	      0.00000000
      3.21000000	     93.83342400	     20.02295883	    -94.42173427	      0.35632208	      0.28950134	      1.01695337	      0.46980366	    -13.44735351	      1.92831901	    -52.56835053	    -33.29183854	     -1.74545602	    -25.17324631	     -9.55445694	    -15.51719447	    -10.82025490	    -59.54457754	    -24.72905535	     -0.14557499	     73.45799169	      0.00000000	      0.00000000	      0.00000000
      3.22000000	     93.82963321	     20.04022556	    -94.41415895	      0.35635756	      0.28952278	      1.01703064	      0.51914398	    -13.37034593	      1.71363881	    -52.58358908	    -33.34307939	     -1.74545602	    -25.17324631	     -9.54598739	    -15.55754196	    -10.85068770	    -59.55379623	    -24.72237374	     -0.14557499	     73.45799169	      0.00000000	      0.00000000	      0.00000000
